name C:\Users\r0593348\3dpredictsim\Results\Batchsim_tmt_linear\Pog_s1_tmt_bCst_d05_k2000_ig24_pas.mot
datacolumns 128
datarows 4
range 1.10027119 1.13327933
endheader
time	pelvis_tilt	pelvis_list	pelvis_rotation	pelvis_tx	pelvis_ty	pelvis_tz	hip_flexion_l	hip_adduction_l	hip_rotation_l	hip_flexion_r	hip_adduction_r	hip_rotation_r	knee_angle_l	knee_angle_r	ankle_angle_l	ankle_angle_r	subtalar_angle_l	subtalar_angle_r	tmt_angle_l	tmt_angle_r	mtp_angle_l	mtp_angle_r	lumbar_extension	lumbar_bending	lumbar_rotation	arm_flex_l	arm_add_l	arm_rot_l	arm_flex_r	arm_add_r	arm_rot_r	elbow_flex_l	elbow_flex_r	pro_sup_l	pro_sup_r	glut_med1_l/activation	glut_med2_l/activation	glut_med3_l/activation	glut_min1_l/activation	glut_min2_l/activation	glut_min3_l/activation	semimem_l/activation	semiten_l/activation	bifemlh_l/activation	bifemsh_l/activation	sar_l/activation	add_long_l/activation	add_brev_l/activation	add_mag1_l/activation	add_mag2_l/activation	add_mag3_l/activation	tfl_l/activation	pect_l/activation	grac_l/activation	glut_max1_l/activation	glut_max2_l/activation	glut_max3_l/activation	iliacus_l/activation	psoas_l/activation	quad_fem_l/activation	gem_l/activation	peri_l/activation	rect_fem_l/activation	vas_med_l/activation	vas_int_l/activation	vas_lat_l/activation	med_gas_l/activation	lat_gas_l/activation	soleus_l/activation	tib_post_l/activation	flex_dig_l/activation	flex_hal_l/activation	tib_ant_l/activation	per_brev_l/activation	per_long_l/activation	per_tert_l/activation	ext_dig_l/activation	ext_hal_l/activation	ercspn_l/activation	intobl_l/activation	extobl_l/activation	glut_med1_r/activation	glut_med2_r/activation	glut_med3_r/activation	glut_min1_r/activation	glut_min2_r/activation	glut_min3_r/activation	semimem_r/activation	semiten_r/activation	bifemlh_r/activation	bifemsh_r/activation	sar_r/activation	add_long_r/activation	add_brev_r/activation	add_mag1_r/activation	add_mag2_r/activation	add_mag3_r/activation	tfl_r/activation	pect_r/activation	grac_r/activation	glut_max1_r/activation	glut_max2_r/activation	glut_max3_r/activation	iliacus_r/activation	psoas_r/activation	quad_fem_r/activation	gem_r/activation	peri_r/activation	rect_fem_r/activation	vas_med_r/activation	vas_int_r/activation	vas_lat_r/activation	med_gas_r/activation	lat_gas_r/activation	soleus_r/activation	tib_post_r/activation	flex_dig_r/activation	flex_hal_r/activation	tib_ant_r/activation	per_brev_r/activation	per_long_r/activation	per_tert_r/activation	ext_dig_r/activation	ext_hal_r/activation	ercspn_r/activation	intobl_r/activation	extobl_r/activation	
          1.10027119	         -2.92677224	         -2.41818683	          5.89745703	          1.37533899	          0.85577061	         -0.00317092	        -18.72593713	         -2.02926354	          7.28987965	         31.94352194	          3.20911590	         -3.01547359	         -6.86445077	        -15.10137836	          0.64240428	          6.19709625	         10.71325350	         -3.15279098	          0.51924135	          0.01592221	         22.59598555	         -0.12067505	         -2.24591195	          0.90148635	         -1.98010625	          8.40642199	        -13.46374790	         18.35594276	         -8.78935531	        -13.53646307	          8.36811464	         37.26945176	         12.88898621	         86.51662706	         86.51662706	          0.25388465	          0.09805334	          0.06856308	          0.30781078	          0.20073986	          0.09852287	          0.05000162	          0.05000028	          0.05000021	          0.07987026	          0.11185067	          0.08763655	          0.05000045	          0.05000048	          0.05000120	          0.05000115	          0.32758645	          0.05000556	          0.05000059	          0.05000590	          0.05000331	          0.05000181	          0.41879528	          0.66547452	          0.05000022	          0.05000078	          0.05000023	          0.23392190	          0.10535725	          0.05509754	          0.05111211	          0.32098182	          0.43678141	          0.29367707	          0.28131365	          0.29098516	          0.37944919	          0.05000002	          0.06712680	          0.18194363	          0.05000019	          0.05000005	          0.05000015	          0.05000001	          0.05000002	          0.05000004	          0.05000035	          0.05000030	          0.05000217	          0.05000033	          0.05000036	          0.05000094	          0.05916863	          0.05915823	          0.30603721	          0.05000035	          0.05000066	          0.10987167	          0.16945493	          0.20929024	          0.17415209	          0.12624160	          0.05000688	          0.05424608	          0.05916929	          0.05000218	          0.08675068	          0.12072691	          0.05294824	          0.05734500	          0.19531227	          0.05000453	          0.05000144	          0.05816323	          0.13605338	          0.13733490	          0.11699397	          0.05256468	          0.05000118	          0.05916889	          0.05000007	          0.05000153	          0.05004699	          0.53737093	          0.37613871	          0.21996625	          0.33144594	          0.57243198	          0.29721103	          0.06992842	          0.09684306	          0.09805379	
          1.11127391	         -2.91797508	         -2.51716229	          6.16752240	          1.39210828	          0.85465410	         -0.00295438	        -18.50625522	         -2.34572980	          7.10456843	         31.33360530	          3.60984339	         -2.83407027	         -9.00110319	        -15.00810926	         -0.25808500	          5.65168305	         11.74740714	         -3.65810250	          0.48921673	          0.02165180	         23.63344219	         -0.10764271	         -2.02870034	          1.13738953	         -2.06928158	          8.17197588	        -13.48314136	         18.51017392	         -9.92507338	        -13.53075062	          8.19634915	         38.49812203	         12.82544650	         86.51662706	         86.51662706	          0.21454231	          0.08285884	          0.05867655	          0.26011200	          0.16963291	          0.08325564	          0.05000306	          0.05000036	          0.05000043	          0.06749345	          0.09451842	          0.16868106	          0.10406194	          0.06422006	          0.05000776	          0.05000129	          0.27682336	          0.10861064	          0.05252883	          0.05000208	          0.05000135	          0.05000126	          0.35389806	          0.60572809	          0.05000636	          0.05947156	          0.05916922	          0.19767297	          0.12675443	          0.16249179	          0.16249184	          0.27124189	          0.36909697	          0.24816834	          0.23772111	          0.24589409	          0.32064942	          0.05000003	          0.05672478	          0.15986040	          0.05000012	          0.05000003	          0.05000015	          0.05553016	          0.07001918	          0.05000006	          0.05012260	          0.05000161	          0.05000067	          0.05000130	          0.05000135	          0.05000067	          0.05000008	          0.05000017	          0.26937975	          0.05000021	          0.05000213	          0.09284604	          0.14319606	          0.27401392	          0.20060261	          0.12293302	          0.05000024	          0.05000226	          0.05000087	          0.05916884	          0.09426954	          0.13609682	          0.05000017	          0.05000064	          0.50556502	          0.11589008	          0.09655996	          0.07001918	          0.21255910	          0.21564419	          0.18689126	          0.05000000	          0.05000002	          0.05000000	          0.05000017	          0.05917170	          0.05000071	          0.61432710	          0.31785184	          0.21776327	          0.52080646	          0.60927226	          0.27157342	          0.05909220	          0.08183609	          0.08285920	
          1.12227662	         -2.90485220	         -2.61549787	          6.41032814	          1.40916035	          0.85353567	         -0.00274688	        -18.19608229	         -2.65017054	          6.91011033	         30.58936477	          3.94696958	         -2.57782367	        -11.28761410	        -15.44598492	         -1.33863552	          5.05906364	         12.72628480	         -4.19468769	          0.45246587	         -0.01550143	         24.48816285	         -0.15492478	         -1.79041936	          1.37669301	         -2.14707348	          7.84500689	        -13.50345955	         18.58610566	        -11.07175334	        -13.52864796	          8.06776173	         39.70522148	         12.80658277	         86.51662706	         86.51662706	          0.29831634	          0.07001891	          0.05000103	          0.21980481	          0.14334635	          0.07035423	          0.05000222	          0.05000046	          0.05000051	          0.05703458	          0.07987194	          0.17072973	          0.18903987	          0.05916951	          0.05916855	          0.05916496	          0.23392715	          0.09179554	          0.05231951	          0.05016962	          0.05033069	          0.05916738	          0.29905743	          0.55773449	          0.05916884	          0.05025674	          0.05000032	          0.16704122	          0.13170658	          0.13731221	          0.13731219	          0.22920975	          0.31190103	          0.20971171	          0.20088345	          0.20779004	          0.27096111	          0.05000001	          0.05000087	          0.20265837	          0.05000008	          0.05000005	          0.05000012	          0.06590390	          0.05916890	          0.05000012	          0.29805455	          0.05000015	          0.35696338	          0.05000046	          0.05000035	          0.29591682	          0.08190032	          0.05000078	          0.22763751	          0.05000023	          0.05000065	          0.08285878	          0.20487428	          0.23155277	          0.19414319	          0.15969036	          0.05000061	          0.05951746	          0.14084205	          0.05000021	          0.07966158	          0.12414222	          0.05151563	          0.05000048	          0.42722178	          0.09793168	          0.19840723	          0.05916890	          0.17962072	          0.18222792	          0.15793044	          0.05916915	          0.05916917	          0.05916899	          0.05916885	          0.05000261	          0.05916860	          0.51912986	          0.40995770	          0.20865657	          0.44010173	          0.60199057	          0.22948996	          0.05533965	          0.09438335	          0.07001920	
          1.13327933	         -2.88951194	         -2.71148628	          6.61872294	          1.42630019	          0.85243008	         -0.00252255	        -17.77439961	         -2.93736712	          6.71129692	         29.72797333	          4.24618361	         -2.30381297	        -13.73509239	        -15.93876194	         -2.57545491	          4.71841702	         13.63162244	         -4.74133109	          0.40466781	         -0.00934875	         25.06913730	         -0.17305846	         -1.55045454	          1.61644088	         -2.21563495	          7.45615070	        -13.52863451	         18.59976314	        -12.17799749	        -13.52895561	          7.99872302	         40.87139518	         12.79683696	         86.51662706	         86.51662706	          0.25208899	          0.05916868	          0.05000003	          0.29144829	          0.12113321	          0.05945206	          0.05000344	          0.05000016	          0.05000013	          0.05000020	          0.06749546	          0.16653161	          0.15974617	          0.05000074	          0.05000075	          0.05000043	          0.25496729	          0.07757212	          0.05000038	          0.05000077	          0.05000048	          0.05000031	          0.25271499	          0.50382800	          0.05000006	          0.05000026	          0.05000014	          0.14115622	          0.11129740	          0.11603427	          0.11603429	          0.19369098	          0.26356828	          0.17721440	          0.16975422	          0.17559064	          0.22897257	          0.07951875	          0.14053634	          0.17125445	          0.05000127	          0.15963495	          0.05000109	          0.09375958	          0.05000001	          0.05000004	          0.34921963	          0.32188119	          0.42559521	          0.21768785	          0.20178245	          0.25006149	          0.07176926	          0.11501759	          0.19236241	          0.07002053	          0.05000166	          0.07001889	          0.17312663	          0.19567125	          0.17364273	          0.17902398	          0.05000026	          0.05029501	          0.11902120	          0.24540849	          0.19327934	          0.16837762	          0.05000011	          0.05000013	          0.36101880	          0.08275643	          0.16766218	          0.05000006	          0.15178676	          0.21394829	          0.15149663	          0.05000021	          0.05000024	          0.05000006	          0.05000000	          0.05000046	          0.05000023	          0.64764952	          0.37678853	          0.19182889	          0.67701517	          0.67225592	          0.36597909	          0.08114380	          0.07975771	          0.05916891	
